<?xml version="1.0" encoding="UTF-8"?> <!-- Creator: CorelDRAW X8 --> <svg xmlns="http://www.w3.org/2000/svg" xmlns:xlink="http://www.w3.org/1999/xlink" xml:space="preserve" width="84.6666mm" height="84.6666mm" style="shape-rendering:geometricPrecision; text-rendering:geometricPrecision; image-rendering:optimizeQuality; fill-rule:evenodd; clip-rule:evenodd" viewBox="0 0 8467 8467"> <defs> <style type="text/css"> <![CDATA[ .fil0 {fill:#A4ED56} ]]> </style> </defs> <g id="Слой_x0020_1"> <metadata id="CorelCorpID_0Corel-Layer"></metadata> <g id="_2407211103680"> <path class="fil0" d="M988 3503c307,-542 612,-954 918,-1273l503 1103 -143 -1431c199,-166 385,-295 586,-392l385 1479 4 -1637c171,-56 354,-111 540,-135l242 1414 195 -1469c147,-8 299,-9 456,-4l-4 1346 513 -1322c238,17 482,29 715,39l-337 795 1036 -775c82,0 147,-8 213,-16 60,-2 316,-27 551,-53 -120,413 -251,801 -383,1132l-1394 73 1171 420c-123,264 -243,479 -369,687l-1549 -658 1273 1029c-152,212 -261,309 -426,453l-1539 -1135 1165 1418c-210,152 -308,170 -536,259l-1261 -1344 760 1463c-251,31 -496,44 -745,27l-363 -1199 27 1187c-226,-29 -448,-51 -674,-80l19 -1035 -380 990c-269,-44 -534,-69 -793,-100 5360,2632 6862,-3128 6917,-4408 -2662,124 -6404,-648 -7293,3152l0 0z"></path> <path class="fil0" d="M4376 5764l107 126 -578 243 988 196c154,160 321,283 487,432 -264,161 -528,309 -763,428l-856 -806 489 966c-188,73 -360,129 -536,166l-626 -1342 276 1404c-181,30 -289,22 -452,10l-382 -1621 22 1552c-199,-33 -267,-81 -436,-168l-119 -1572 -242 1329c-161,-130 -316,-277 -448,-436l345 -943 -534 725c-133,-146 -249,-297 -371,-455l490 -610 -682 360c-142,-183 -289,-374 -427,-539 1937,4842 5550,2336 6188,1613 -362,-336 -731,-723 -1111,-1122l-829 64 0 0z"></path> </g> </g> </svg> 