<?xml version="1.0" encoding="UTF-8"?> <!-- Creator: CorelDRAW X8 --> <svg xmlns="http://www.w3.org/2000/svg" xmlns:xlink="http://www.w3.org/1999/xlink" xml:space="preserve" width="76.1998mm" height="25.3998mm" style="shape-rendering:geometricPrecision; text-rendering:geometricPrecision; image-rendering:optimizeQuality; fill-rule:evenodd; clip-rule:evenodd" viewBox="0 0 7620 2540"> <defs> <style type="text/css"> <![CDATA[ .fil1 {fill:#A4ED56} .fil0 {fill:white;fill-rule:nonzero} ]]> </style> </defs> <g id="Слой_x0020_1"> <metadata id="CorelCorpID_0Corel-Layer"></metadata> <g id="_2648708338912"> <path class="fil0" d="M1003 1229c0,121 -46,210 -135,268 -90,58 -201,87 -331,87 -25,0 -41,-1 -51,-2 0,95 2,221 8,378l-214 0c7,-147 11,-319 11,-519 0,-182 -4,-339 -11,-472l133 0c18,0 55,0 108,-2 53,-1 99,-2 138,-2 97,0 178,21 243,65 67,44 101,110 101,199l0 0zm-197 42c0,-108 -72,-163 -216,-163 -35,0 -74,4 -113,11 5,96 8,205 8,326 12,0 27,1 44,1 185,0 277,-58 277,-175l0 0zm1048 311c0,128 -40,227 -119,299 -78,72 -171,108 -278,108 -101,0 -188,-33 -260,-98 -73,-66 -108,-158 -108,-278 0,-128 39,-228 118,-300 79,-73 171,-109 278,-109 101,0 187,33 260,98 72,67 109,160 109,280zm-199 22c0,-73 -17,-134 -52,-185 -34,-50 -80,-75 -134,-75 -54,0 -98,23 -131,70 -34,47 -51,105 -51,175 0,73 17,135 52,186 34,49 79,74 134,74 54,0 98,-23 131,-69 34,-47 51,-106 51,-176zm1099 219c0,98 -39,226 -39,305l-135 0c0,-64 -1,-24 -4,-174 -65,-3 -150,-5 -253,-5 -82,0 -156,2 -225,5 -12,56 -32,112 -40,174l-135 0c0,-97 -4,-205 -4,-305l91 0c43,-164 123,-358 240,-585l238 0 137 -17c-6,100 -10,224 -10,377 0,71 4,146 12,225l127 0zm-309 0c-4,-77 -6,-152 -6,-225 0,-79 -2,-154 -6,-226l-88 0c-91,189 -149,339 -173,451l273 0zm1078 137l-201 0c7,-91 10,-196 10,-315l-289 0c0,112 4,217 11,315l-201 0c6,-105 10,-226 10,-362 0,-134 -9,-253 -26,-354l216 -23c-3,34 -6,129 -10,287l288 0c-2,-102 -10,-190 -24,-264l216 -23c-6,100 -9,224 -9,377 0,131 3,250 9,362zm764 -238c0,79 -31,140 -93,180 -60,42 -134,62 -220,62 -37,0 -88,-1 -155,-2 -67,-2 -110,-2 -129,-2 6,-105 9,-226 9,-362 0,-134 -9,-253 -26,-354l212 -23c-2,26 -5,117 -8,276 26,-7 51,-9 75,-9 223,0 335,77 335,234l0 0zm265 238l-201 0c6,-105 11,-226 11,-362 0,-134 -10,-253 -27,-354l216 -23c-6,100 -10,224 -10,377 0,131 4,250 11,362zm-450 -236c0,-38 -14,-66 -42,-86 -28,-19 -64,-30 -108,-30 -21,0 -46,2 -75,7 0,73 1,147 3,221 27,4 56,6 86,6 91,0 136,-39 136,-118l0 0zm1762 236l-239 0c-4,-8 -12,-25 -21,-52 -41,-161 -81,-263 -117,-310 -37,-45 -88,-69 -156,-69 -20,0 -36,1 -47,3 0,146 3,289 8,428l-214 0c7,-154 10,-326 10,-519 0,-184 -3,-341 -10,-472l214 0c-5,151 -8,287 -8,410 21,1 36,2 47,2 139,0 230,-121 273,-364 3,-18 9,-34 19,-48l204 0c-6,16 -16,44 -30,83 -34,119 -69,206 -108,260 -38,54 -89,95 -154,122l0 8c67,23 119,58 155,110 37,50 84,158 140,324 7,21 18,48 34,84l0 0zm768 -722c0,32 -36,136 -108,313 -83,201 -134,339 -153,413 -54,208 -105,262 -331,262l-15 -147c105,0 172,-12 172,-126 0,-61 -46,-193 -137,-396 -91,-204 -137,-310 -137,-319l235 0c0,17 24,103 69,257 47,154 69,248 69,283l11 0c0,-30 22,-117 63,-261 42,-144 63,-237 63,-279l199 0 0 0zm708 0l-5 154c-73,-8 -146,-12 -218,-12 -2,71 -3,145 -3,223 0,130 4,248 11,357l-205 0c7,-102 10,-221 10,-357 0,-75 -1,-149 -3,-223 -74,0 -150,4 -230,12l5 -154 638 0z"></path> <path class="fil1" d="M6246 1059c71,20 132,28 186,30l-34 -139 94 135c32,-3 60,-8 87,-16l-74 -161 124 141c21,-10 43,-22 63,-36l-83 -141 130 108c15,-12 30,-25 45,-38l-102 -115 150 68c22,-22 45,-43 67,-65l-93 -39 160 -23c8,-7 15,-12 22,-17 6,-5 33,-25 58,-43 -43,-25 -85,-47 -123,-63l-142 113 83 -137c-32,-12 -60,-20 -88,-27l-102 191 47 -199c-31,-5 -49,-3 -76,-2l-65 231 7 -222c-32,5 -43,11 -72,23l-22 224 -36 -190c-27,18 -52,38 -75,61l55 134 -87 -104c-20,22 -40,44 -60,65l80 87 -112 -51c-23,26 -47,51 -70,76 326,-687 908,-324 1010,-218 -270,218 -578,607 -952,359l0 0z"></path> <path class="fil1" d="M6407 573l1 -20 -75 28 82 -102c3,-26 10,-51 15,-78 -38,8 -75,18 -107,28l-23 144 -25 -125c-24,10 -45,20 -65,31l40 169 -79 -144c-20,14 -30,24 -45,39l85 172 -115 -136c-17,20 -20,30 -30,52l107 145 -124 -93c-6,25 -10,52 -11,77l105 50 -107 -15c-2,23 -2,47 -2,70l94 10 -94 28c0,29 0,57 -1,84 -176,-583 367,-680 484,-673 -10,60 -17,125 -24,192l-86 67 0 0z"></path> </g> </g> </svg> 